<svg xmlns="http://www.w3.org/2000/svg" viewBox="0 0 24 24" fill="#0A66C2" width="48" height="48">
  <path d="M20.447 20.452h-3.554v-5.569c0-1.328-.475-2.236-1.986-2.236-1.081 0-1.722.722-2.004 1.418-.103.249-.129.597-.129.946v5.441h-3.554s.05-8.736 0-9.637h3.554v1.365c.427-.659 1.191-1.595 2.897-1.595 2.117 0 3.704 1.385 3.704 4.362v5.505zM5.337 8.855c-1.144 0-1.915-.762-1.915-1.715 0-.955.77-1.715 1.958-1.715 1.187 0 1.927.76 1.94 1.715 0 .953-.753 1.715-1.983 1.715zm1.946 11.597H3.392V9.815h3.891v10.637zM22.225 0H1.771C.792 0 0 .774 0 1.729v20.542C0 23.227.792 24 1.771 24h20.451C23.2 24 24 23.227 24 22.271V1.729C24 .774 23.2 0 22.225 0z"/>
</svg>
